<svg xmlns="http://www.w3.org/2000/svg" width="800" height="800" fill="none" viewBox="0 0 24 24"><path fill="#FFF" d="M17.543 14.267a.75.75 0 1 0-1.086-1.034l1.086 1.034Zm-6.086 4.216a.75.75 0 1 0 1.086 1.034l-1.086-1.034Zm0 1.034a.75.75 0 1 0 1.086-1.034l-1.086 1.034Zm-3.914-6.284a.75.75 0 1 0-1.086 1.034l1.086-1.034ZM11.25 19a.75.75 0 0 0 1.5 0h-1.5Zm1.5-14a.75.75 0 0 0-1.5 0h1.5Zm3.707 8.233-5 5.25 1.086 1.034 5-5.25-1.086-1.034Zm-3.914 5.25-5-5.25-1.086 1.034 5 5.25 1.086-1.034Zm.207.517V5h-1.5v14h1.5Z"/></svg>